<svg xmlns="http://www.w3.org/2000/svg" version="1.1" xmlns:xlink="http://www.w3.org/1999/xlink" xmlns:svgjs="http://svgjs.dev/svgjs" width="1500" height="1500" viewBox="0 0 1500 1500"><rect width="1500" height="1500" fill="#000000"></rect><g transform="matrix(0.6666666666666666,0,0,0.6666666666666666,249.39393939393938,654.8067442836038)"><svg viewBox="0 0 396 75" data-background-color="#2979ff" preserveAspectRatio="xMidYMid meet" height="284" width="1500" xmlns="http://www.w3.org/2000/svg" xmlns:xlink="http://www.w3.org/1999/xlink"><g id="tight-bounds" transform="matrix(1,0,0,1,0.2400000000000091,0.2085960144175374)"><svg viewBox="0 0 395.52 74.58249937177004" height="74.58249937177004" width="395.52"><g><svg viewBox="0 0 511.91873407020597 96.53160058198941" height="74.58249937177004" width="395.52"><g transform="matrix(1,0,0,1,116.39873407020599,6.187966270982933)"><svg viewBox="0 0 395.52 84.15566804002354" height="84.15566804002354" width="395.52"><g id="textblocktransform"><svg viewBox="0 0 395.52 84.15566804002354" height="84.15566804002354" width="395.52" id="textblock"><g><svg viewBox="0 0 395.52 84.15566804002354" height="84.15566804002354" width="395.52"><g transform="matrix(1,0,0,1,0,0)"><svg width="395.52" viewBox="0.5 -35.55 169.89 36.15" height="84.15566804002354" data-palette-color="#ffffff"><path d="M18.7 0L13.35 0 0.5-33.75 5.15-35.55 16.15-5.2 27.2-35.4 31.5-33.75 18.7 0ZM38.5 0L34 0 34-26 38.35-26 38.35-21.65Q39.75-23.75 41.9-25.18 44.05-26.6 46.8-26.6L46.8-26.6Q49.9-26.6 51.87-25.1 53.85-23.6 54.65-21.1L54.65-21.1Q56.2-23.4 58.32-25 60.45-26.6 63.6-26.6L63.6-26.6Q67.85-26.6 69.92-23.93 72-21.25 72-16.95L72-16.95 72 0 67.5 0 67.5-16.6Q67.5-19.3 66.25-20.98 65-22.65 62.8-22.65L62.8-22.65Q60.55-22.65 58.62-20.98 56.7-19.3 55.25-17.05L55.25-17.05 55.25 0 50.75 0 50.75-16.6Q50.75-19.3 49.5-20.98 48.25-22.65 46.05-22.65L46.05-22.65Q43.85-22.65 41.9-21.03 39.95-19.4 38.5-17.2L38.5-17.2 38.5 0ZM90.15 0.6L90.15 0.6Q84.55 0.6 81.27-2.98 78-6.55 78-13L78-13Q78-16.9 79.47-19.98 80.95-23.05 83.59-24.83 86.25-26.6 89.75-26.6L89.75-26.6Q93.5-26.6 95.97-24.98 98.45-23.35 99.7-20.6 100.95-17.85 100.95-14.55L100.95-14.55Q100.95-12.8 100.8-11.15L100.8-11.15 82.59-11.15Q83.05-7.5 85.15-5.45 87.25-3.4 90.7-3.4L90.7-3.4Q92.95-3.4 94.75-3.88 96.55-4.35 98.2-5.1L98.2-5.1 99.25-1.25Q97.45-0.45 95.2 0.08 92.95 0.6 90.15 0.6ZM82.55-14.8L82.55-14.8 96.8-14.8Q96.8-18.6 94.9-20.65 93-22.7 89.65-22.7L89.65-22.7Q86.75-22.7 84.84-20.68 82.95-18.65 82.55-14.8ZM113.94 0.6L113.94 0.6Q110.99 0.6 108.62-0.15 106.24-0.9 104.69-2.1L104.69-2.1 106.59-5.85Q107.89-4.75 109.87-4.03 111.84-3.3 114.09-3.3L114.09-3.3Q116.89-3.3 118.32-4.23 119.74-5.15 119.74-6.6L119.74-6.6Q119.74-7.65 119.22-8.45 118.69-9.25 117.29-10.03 115.89-10.8 113.24-11.7L113.24-11.7Q109.59-12.95 107.77-14.68 105.94-16.4 105.94-19.45L105.94-19.45Q105.94-22.45 108.57-24.53 111.19-26.6 115.84-26.6L115.84-26.6Q118.34-26.6 120.29-26.08 122.24-25.55 123.79-24.75L123.79-24.75 122.54-21.05Q121.19-21.85 119.47-22.35 117.74-22.85 115.64-22.85L115.64-22.85Q113.04-22.85 111.69-21.8 110.34-20.75 110.34-19.5L110.34-19.5Q110.34-18.3 111.39-17.45 112.44-16.6 115.49-15.6L115.49-15.6Q120.44-13.95 122.39-11.95 124.34-9.95 124.34-6.95L124.34-6.95Q124.34-3.45 121.52-1.43 118.69 0.6 113.94 0.6ZM139.44 0.6L139.44 0.6Q135.69 0.6 133.52-1.88 131.34-4.35 131.34-8.95L131.34-8.95 131.34-21.15 126.84-21.15 126.84-25.05 131.44-25.05 132.39-33.25 135.84-33.25 135.84-25.05 143.04-25.05 143.04-21.15 135.84-21.15 135.84-8.6Q135.84-5.7 137.07-4.55 138.29-3.4 139.99-3.4L139.99-3.4Q141.24-3.4 142.37-3.8 143.49-4.2 144.44-4.75L144.44-4.75 145.69-1.15Q144.69-0.55 142.99 0.03 141.29 0.6 139.44 0.6ZM159.59 0.6L159.59 0.6Q153.99 0.6 150.71-2.98 147.44-6.55 147.44-13L147.44-13Q147.44-16.9 148.91-19.98 150.39-23.05 153.04-24.83 155.69-26.6 159.19-26.6L159.19-26.6Q162.94-26.6 165.41-24.98 167.89-23.35 169.14-20.6 170.39-17.85 170.39-14.55L170.39-14.55Q170.39-12.8 170.24-11.15L170.24-11.15 152.04-11.15Q152.49-7.5 154.59-5.45 156.69-3.4 160.14-3.4L160.14-3.4Q162.39-3.4 164.19-3.88 165.99-4.35 167.64-5.1L167.64-5.1 168.69-1.25Q166.89-0.45 164.64 0.08 162.39 0.6 159.59 0.6ZM151.99-14.8L151.99-14.8 166.24-14.8Q166.24-18.6 164.34-20.65 162.44-22.7 159.09-22.7L159.09-22.7Q156.19-22.7 154.29-20.68 152.39-18.65 151.99-14.8Z" opacity="1" transform="matrix(1,0,0,1,0,0)" fill="#ffffff" class="wordmark-text-0" data-fill-palette-color="primary" id="text-0"></path></svg></g></svg></g></svg></g></svg></g><g><svg viewBox="0 0 96.5316005819894 96.53160058198941" height="96.53160058198941" width="96.5316005819894"><g><svg></svg></g><g id="icon-0"><svg viewBox="0 0 96.5316005819894 96.53160058198941" height="96.53160058198941" width="96.5316005819894"><g><path transform="scale(0.96532,0.96532)" d="M30 100c-16.569 0-30-13.431-30-30v-40c0-16.569 13.431-30 30-30h40c16.569 0 30 13.431 30 30v40c0 16.569-13.431 30-30 30z" fill="#ffffff" fill-rule="nonzero" stroke="none" stroke-width="1" stroke-linecap="butt" stroke-linejoin="miter" stroke-miterlimit="10" stroke-dasharray="" stroke-dashoffset="0" font-family="none" font-weight="none" font-size="none" text-anchor="none" style="mix-blend-mode: normal" data-fill-palette-color="accent"></path></g><g transform="matrix(1,0,0,1,19.306320116397877,20.420146276959297)"><svg viewBox="0 0 57.91896034919364 55.691308028070814" height="55.691308028070814" width="57.91896034919364"><g><svg xmlns="http://www.w3.org/2000/svg" xmlns:xlink="http://www.w3.org/1999/xlink" version="1.1" x="0" y="0" viewBox="8.4 12.4 83.19999999999999 80" enable-background="new 0 0 100 100" xml:space="preserve" height="55.691308028070814" width="57.91896034919364" class="icon-dxe-0" data-fill-palette-color="quaternary" id="dxe-0"><g fill="#2979ff" data-fill-palette-color="quaternary"><g fill="#2979ff" data-fill-palette-color="quaternary"><g fill="#2979ff" data-fill-palette-color="quaternary"><g fill="#2979ff" data-fill-palette-color="quaternary"><g fill="#2979ff" data-fill-palette-color="quaternary"><g fill="#2979ff" data-fill-palette-color="quaternary"><g fill="#2979ff" data-fill-palette-color="quaternary"><path d="M56.2 80.5C57.3 82.2 58.6 83.8 60.3 84.9 62.7 86.6 65.5 87.6 68.7 87.6 75.5 87.6 81.1 83 82.8 76.8 83.2 75.6 83.3 74.4 83.3 73 83.3 72.5 83.3 72.1 83.2 71.7 82.7 65.5 78.2 60.2 72.2 58.8 71.1 58.6 69.9 58.3 68.7 58.3 68.2 58.3 67.7 58.3 67.1 58.4 66.9 58.4 66.6 58.4 66.4 58.5 59.4 59.5 54 65.6 54 72.9 54 75.6 54.8 78.3 56.2 80.5M50.8 80.8C49.7 78.4 49.1 75.7 49.1 72.9 49.1 64 55.1 56.6 63.1 54.1 63.6 54 64.2 53.9 64.7 53.7 62.7 50.5 60.4 48 57.9 46.3 56.6 45.3 55.3 44.6 54 44.1 52.4 43.5 51 43.1 49.5 43.1 48.3 43.1 46.9 43.3 45.6 43.8S42.9 44.9 41.6 45.9C35.4 50 29.7 58.9 29.7 71.1 29.7 72.2 29.9 73.2 30.3 74 30.7 75 31.3 75.7 32 76.4 32.9 77.1 34 77.9 35.3 78.4 39.2 80.2 45.1 81 50.8 80.8M91.6 65.4C91.6 68.6 90.3 71.3 88.2 73.4 88.2 73.4 88.2 73.5 88.1 73.5 87.7 84 79.2 92.4 68.6 92.4 62.7 92.4 57.5 89.8 54 85.8 44.4 86.7 33.5 84.9 28.6 80.1 28.1 79.6 27.7 79.1 27.3 78.6 21 78.2 15 76.5 11.8 73.4 9.6 71.2 8.4 68.5 8.4 65.4 8.4 58.8 10.6 51.5 14.3 45.9 16.1 43.1 18.2 40.9 20.5 39.2 20.9 38.8 21 38.3 21.1 37.9 21.2 37.2 21 36.3 20.5 35.7 18.3 33.3 16.8 30 16.8 26.3 16.8 18.6 23 12.4 30.7 12.4 34.2 12.4 37.4 13.7 39.8 15.9 42.5 13.7 45.8 12.5 49.4 12.5 53.3 12.5 56.8 14 59.5 16.3 61.9 13.9 65.4 12.4 69.1 12.4 76.8 12.4 83 18.6 83 26.3 83 29.8 81.7 33.1 79.3 35.7 78.8 36.4 78.7 37.2 78.7 37.9 78.8 38.4 78.9 38.9 79.3 39.2 81.6 40.9 83.7 43.1 85.5 45.9 89.4 51.5 91.6 58.8 91.6 65.4M87.1 66.7C87.2 66.2 87.2 65.8 87.2 65.4 87.2 49.8 76.7 40.2 69.3 40.2 67 40.2 64.3 41.2 61.7 42.9 63.9 44.6 66 46.9 67.7 49.6 68.6 50.8 69.3 52 69.9 53.5 78 54 84.7 59.4 87.1 66.7M77 31.7C78.1 30.1 78.7 28.3 78.7 26.2 78.7 21 74.4 16.7 69.2 16.7 66.5 16.7 64.2 17.8 62.5 19.5 64 21.9 64.9 24.7 64.9 27.7 64.9 29.9 64.4 31.8 63.7 33.8 65.3 35 67.2 35.6 69.3 35.6 72 35.6 74.4 34.5 76.1 32.7 76.4 32.5 76.6 32.1 77 31.7M59.8 27.5C59.8 21.8 55.2 17.1 49.4 17.1S39 21.7 39 27.5 43.6 37.9 49.4 37.9 59.8 33.2 59.8 27.5M34.2 27.8C34.2 24.5 35.2 21.6 36.9 19.1 35.2 17.6 33.1 16.8 30.7 16.8 25.5 16.8 21.2 21.1 21.2 26.3 21.2 28.4 21.8 30.2 23 31.8 23.4 32.2 23.6 32.5 23.9 32.9 25.6 34.7 28 35.8 30.7 35.8 32.5 35.8 34.2 35.3 35.6 34.3 34.7 32.3 34.2 30.1 34.2 27.8M31.4 49.5C33.2 46.6 35.4 44.3 37.9 42.4 35.6 40.9 33 40 30.8 40 23.4 40 12.9 49.6 12.9 65.2 12.9 67.2 13.5 68.7 15 70.1 17 71.9 20.9 73.1 25.2 73.6 25 72.8 25 71.9 25 71 24.8 63.8 27.3 55.7 31.4 49.5" fill="#000000" data-fill-palette-color="quaternary"></path></g></g></g></g></g></g><g fill="#2979ff" data-fill-palette-color="quaternary"><g fill="#2979ff" data-fill-palette-color="quaternary"><path d="M69.7 69.3C71.5 68.3 73.4 67.4 75.2 66.4 74.6 65.9 74 65.5 73.4 65 73.1 66.8 71.8 70 72.3 71.8 72.9 73.6 75.8 75.4 77.1 76.7L77.7 74.6C75.9 74.9 72.6 74.6 71.1 75.7S68.8 80 68 81.7H70.2C69.4 80.1 68.6 76.8 67.1 75.7S62.3 74.8 60.5 74.6L61.1 76.7C62.4 75.4 65.3 73.6 65.9 71.8S65.2 66.8 64.8 65C64.2 65.5 63.6 65.9 63 66.4 64.8 67.4 66.7 68.3 68.5 69.3 69.9 70 71.2 67.9 69.8 67.1 68 66.1 66.1 65.2 64.3 64.2 63.3 63.7 62.3 64.5 62.5 65.6 62.7 66.6 62.9 67.7 63 68.7 63.1 69.3 63.2 70 63.3 70.6 63.5 71.2 63.2 72.2 63.6 71.2 64.1 70.1 61.9 72.4 61.6 72.8L59.4 75C58.8 75.6 59 77 60 77.1S62.1 77.4 63.1 77.5C63.7 77.6 66.4 78.1 65.8 77.7S66.6 79.7 66.8 80.2C67.3 81.1 67.7 82.1 68.2 83 68.6 83.8 70 83.8 70.4 83 70.9 82.1 71.3 81.1 71.8 80.2 72.1 79.6 73.4 77.3 72.8 77.7S75 77.6 75.5 77.5C76.5 77.4 77.6 77.2 78.6 77.1S79.8 75.6 79.2 75L77 72.8C76.6 72.4 74.5 70.1 75 71.2 75.4 72.2 75.2 71.2 75.3 70.6 75.5 70 75.5 69.3 75.6 68.7 75.8 67.7 76 66.6 76.1 65.6 76.3 64.5 75.3 63.7 74.3 64.2 72.5 65.2 70.6 66.1 68.8 67.1 67 67.9 68.2 70 69.7 69.3" fill="#000000" data-fill-palette-color="quaternary"></path></g></g></g></svg></g></svg></g></svg></g></svg></g></svg></g><defs></defs></svg><rect width="395.52" height="74.58249937177004" fill="none" stroke="none" visibility="hidden"></rect></g></svg></g></svg>